PathFileType	4	(X/Y/Z)	 0.06m3min.trc
DataRate	CameraRate	NumFrames	NumMarkers	Units	OrigDataRate	OrigDataStartFrame	OrigNumFrames
200	200	9	34	m	200	626	1000
Frame#	Time	LSH			RSH			MAN			RASI			LASI			HIPR			HIPL			RPSI			LPSI			COX			RTHI1			RTHI2			RTHI3			RTHI4			RSHA1			RSHA2			RSHA3			RSHA4			RHEEL			RMET5			RMET1			RTOE			LTHI1			LTHI2			LTHI3			LTHI4			LSHA1			LSHA2			LSHA3			LSHA4			LHEEL			LMET5			LMET1			LTOE			
		X1	Y1	Z1	X2	Y2	Z2	X3	Y3	Z3	X4	Y4	Z4	X5	Y5	Z5	X6	Y6	Z6	X7	Y7	Z7	X8	Y8	Z8	X9	Y9	Z9	X10	Y10	Z10	X11	Y11	Z11	X12	Y12	Z12	X13	Y13	Z13	X14	Y14	Z14	X15	Y15	Z15	X16	Y16	Z16	X17	Y17	Z17	X18	Y18	Z18	X19	Y19	Z19	X20	Y20	Z20	X21	Y21	Z21	X22	Y22	Z22	X23	Y23	Z23	X24	Y24	Z24	X25	Y25	Z25	X26	Y26	Z26	X27	Y27	Z27	X28	Y28	Z28	X29	Y29	Z29	X30	Y30	Z30	X31	Y31	Z31	X32	Y32	Z32	X33	Y33	Z33	X34	Y34	Z34	
626	3.1300	-0.191967	1.451038	-0.682626	-0.220911	1.427817	-0.344640	-0.140408	1.414185	-0.509129	-0.096978	1.011283	-0.397926	-0.089633	1.010324	-0.626184	-0.151035	1.059166	-0.374675	-0.142827	1.055634	-0.653090	-0.252680	1.039228	-0.459098	-0.248336	1.039949	-0.572436	-0.255882	1.042076	-0.515810	-0.193695	0.800360	-0.350472	-0.171389	0.744398	-0.346160	-0.111052	0.765068	-0.336709	-0.125411	0.824713	-0.339078	-0.222402	0.380870	-0.352039	-0.235310	0.340700	-0.361761	-0.175610	0.328495	-0.358754	-0.166702	0.367612	-0.354078	-0.306433	0.153109	-0.416775	-0.183096	0.048944	-0.364396	-0.158016	0.050003	-0.424111	-0.136171	0.036125	-0.416146	-0.166121	0.817095	-0.691121	-0.145237	0.759077	-0.691084	-0.082547	0.775751	-0.684055	-0.095963	0.833946	-0.684237	-0.205906	0.391464	-0.695039	-0.222452	0.354701	-0.693466	-0.162507	0.335496	-0.689998	-0.153515	0.378722	-0.692476	-0.308591	0.144145	-0.654768	-0.181769	0.055449	-0.704505	-0.150420	0.049444	-0.640598	-0.130255	0.037281	-0.646840	
627	3.1350	-0.191748	1.447381	-0.682566	-0.220411	1.424321	-0.344290	-0.140270	1.410581	-0.508948	-0.097244	1.008106	-0.397577	-0.090141	1.007112	-0.625824	-0.151475	1.055709	-0.374314	-0.143448	1.052206	-0.652819	-0.253100	1.035366	-0.458681	-0.248896	1.036126	-0.571997	-0.256353	1.038214	-0.515363	-0.192633	0.796736	-0.349781	-0.170128	0.740877	-0.345730	-0.109788	0.761800	-0.336861	-0.124347	0.821354	-0.338945	-0.221472	0.377688	-0.352016	-0.234562	0.337603	-0.361791	-0.174948	0.325186	-0.359076	-0.165864	0.364273	-0.354302	-0.306714	0.150451	-0.417112	-0.183872	0.045637	-0.364847	-0.158629	0.047111	-0.425050	-0.136673	0.033615	-0.417324	-0.164811	0.813698	-0.691165	-0.143710	0.755766	-0.690809	-0.081190	0.772657	-0.682906	-0.094825	0.830819	-0.683300	-0.204307	0.388196	-0.695056	-0.221036	0.351510	-0.693489	-0.161215	0.332077	-0.689351	-0.152017	0.375252	-0.691936	-0.308660	0.141623	-0.654579	-0.182042	0.051831	-0.703153	-0.151144	0.046418	-0.638908	-0.130950	0.034550	-0.644987	
628	3.1400	-0.191452	1.443527	-0.682483	-0.219859	1.420633	-0.343962	-0.140116	1.406724	-0.508765	-0.097531	1.004682	-0.397243	-0.090668	1.003677	-0.625463	-0.151937	1.052018	-0.373958	-0.144123	1.048554	-0.652555	-0.253543	1.031271	-0.458256	-0.249484	1.032073	-0.571566	-0.256829	1.034115	-0.514913	-0.191619	0.792811	-0.349160	-0.168908	0.737083	-0.345299	-0.108557	0.758284	-0.337017	-0.123359	0.817740	-0.338871	-0.220530	0.374267	-0.351941	-0.233814	0.334273	-0.361801	-0.174299	0.321631	-0.359419	-0.165031	0.360690	-0.354526	-0.307245	0.147508	-0.417457	-0.184657	0.042488	-0.364999	-0.159259	0.044421	-0.425983	-0.137096	0.031603	-0.418578	-0.163535	0.810050	-0.691187	-0.142206	0.752192	-0.690486	-0.079871	0.769321	-0.681750	-0.093730	0.827444	-0.682345	-0.202659	0.384685	-0.695135	-0.219592	0.348087	-0.693561	-0.159920	0.328397	-0.688677	-0.150488	0.371515	-0.691388	-0.308981	0.138795	-0.654258	-0.182352	0.048405	-0.702086	-0.151883	0.043656	-0.637394	-0.131582	0.032359	-0.643322	
629	3.1450	-0.191084	1.439479	-0.682372	-0.219249	1.416764	-0.343660	-0.139911	1.402612	-0.508589	-0.097839	1.001006	-0.396923	-0.091213	1.000017	-0.625106	-0.152412	1.048083	-0.373605	-0.144846	1.044668	-0.652292	-0.254001	1.026937	-0.457839	-0.250104	1.027787	-0.571148	-0.257310	1.029782	-0.514463	-0.190642	0.788724	-0.348603	-0.167741	0.733027	-0.344854	-0.107385	0.754510	-0.337155	-0.122471	0.813874	-0.338839	-0.219604	0.370604	-0.351844	-0.233089	0.330740	-0.361790	-0.173705	0.317839	-0.359792	-0.164229	0.356851	-0.354766	-0.308157	0.144346	-0.417808	-0.185390	0.039704	-0.364835	-0.159891	0.042120	-0.426866	-0.137414	0.030133	-0.419737	-0.162306	0.806139	-0.691188	-0.140741	0.748346	-0.690121	-0.078607	0.765733	-0.680585	-0.092696	0.823816	-0.681374	-0.200998	0.380944	-0.695260	-0.218160	0.344450	-0.693673	-0.158666	0.324472	-0.687974	-0.148964	0.367518	-0.690827	-0.309681	0.135680	-0.653784	-0.182700	0.045398	-0.701412	-0.152603	0.041357	-0.636174	-0.132088	0.030804	-0.641991	
630	3.1500	-0.190658	1.435249	-0.682231	-0.218576	1.412717	-0.343397	-0.139669	1.398246	-0.508418	-0.098160	0.997083	-0.396619	-0.091773	0.996130	-0.624759	-0.152875	1.043902	-0.373256	-0.145617	1.040549	-0.652037	-0.254487	1.022364	-0.457424	-0.250761	1.023273	-0.570741	-0.257802	1.025219	-0.514010	-0.189840	0.784353	-0.348043	-0.166646	0.728716	-0.344409	-0.106304	0.750481	-0.337269	-0.121694	0.809759	-0.338839	-0.218718	0.366737	-0.351717	-0.232444	0.327019	-0.361768	-0.173183	0.313820	-0.360197	-0.163472	0.352757	-0.355013	-0.309520	0.141085	-0.418096	-0.186045	0.037471	-0.364413	-0.160513	0.040330	-0.427575	-0.137645	0.029166	-0.420698	-0.161134	0.801952	-0.691151	-0.139329	0.744233	-0.689733	-0.077409	0.761893	-0.679415	-0.091725	0.819922	-0.680400	-0.199367	0.376998	-0.695415	-0.216794	0.340633	-0.693804	-0.157524	0.320324	-0.687242	-0.147496	0.363275	-0.690249	-0.310844	0.132362	-0.653163	-0.183119	0.043044	-0.701171	-0.153255	0.039591	-0.635372	-0.132457	0.029814	-0.641107	
631	3.1550	-0.190189	1.430851	-0.682057	-0.217847	1.408514	-0.343155	-0.139392	1.393630	-0.508253	-0.098492	0.992915	-0.396335	-0.092347	0.992029	-0.624429	-0.153355	1.039466	-0.372902	-0.146435	1.036193	-0.651795	-0.255019	1.017570	-0.457000	-0.251452	1.018524	-0.570343	-0.258311	1.020428	-0.513556	-0.189121	0.779506	-0.347241	-0.165636	0.724146	-0.343964	-0.105330	0.746191	-0.337332	-0.121036	0.805394	-0.338844	-0.217898	0.362719	-0.351580	-0.231924	0.323158	-0.361764	-0.172784	0.309609	-0.360655	-0.162793	0.348438	-0.355311	-0.311348	0.137843	-0.418248	-0.186639	0.035853	-0.363815	-0.161147	0.039073	-0.428055	-0.137835	0.028602	-0.421444	-0.160032	0.797491	-0.691082	-0.137981	0.739853	-0.689332	-0.076284	0.757799	-0.678258	-0.090836	0.815762	-0.679437	-0.197821	0.372892	-0.695568	-0.215563	0.336682	-0.693928	-0.156556	0.315982	-0.686474	-0.146149	0.358812	-0.689648	-0.312490	0.129004	-0.652478	-0.183647	0.041464	-0.701280	-0.153839	0.038365	-0.634988	-0.132719	0.029271	-0.640630	
632	3.1600	-0.189730	1.426300	-0.681848	-0.217074	1.404167	-0.342934	-0.139121	1.388792	-0.508085	-0.098843	0.988512	-0.396062	-0.092934	0.987712	-0.624127	-0.153835	1.034799	-0.372540	-0.147300	1.031597	-0.651571	-0.255602	1.012557	-0.456567	-0.252180	1.013544	-0.569948	-0.258843	1.015422	-0.513097	-0.188492	0.774527	-0.346738	-0.164703	0.719336	-0.343560	-0.104470	0.741652	-0.337313	-0.120502	0.800796	-0.338781	-0.217156	0.358597	-0.351452	-0.231548	0.319209	-0.361773	-0.172543	0.305256	-0.361175	-0.162206	0.343946	-0.355678	-0.313575	0.134719	-0.418251	-0.187193	0.034785	-0.363208	-0.161857	0.038308	-0.428342	-0.138058	0.028310	-0.421941	-0.159012	0.792749	-0.690984	-0.136706	0.735211	-0.688936	-0.075239	0.753446	-0.677133	-0.090037	0.811347	-0.678508	-0.196410	0.368693	-0.695681	-0.214537	0.332672	-0.694001	-0.155842	0.311467	-0.685656	-0.144976	0.354162	-0.689015	-0.314557	0.125757	-0.651858	-0.184306	0.040593	-0.701556	-0.154401	0.037639	-0.634893	-0.132938	0.029036	-0.640467	
633	3.1650	-0.189307	1.421612	-0.681607	-0.216262	1.399682	-0.342739	-0.138842	1.383746	-0.507920	-0.099210	0.983883	-0.395786	-0.093527	0.983187	-0.623864	-0.154330	1.029900	-0.372157	-0.148179	1.026768	-0.651375	-0.256237	1.007331	-0.456136	-0.252947	1.008339	-0.569563	-0.259407	1.010205	-0.512635	-0.187966	0.769297	-0.346239	-0.163848	0.714291	-0.343207	-0.103725	0.736898	-0.337181	-0.120085	0.795971	-0.338613	-0.216481	0.354431	-0.351345	-0.231309	0.315241	-0.361791	-0.172450	0.300828	-0.361742	-0.161708	0.339349	-0.356094	-0.316037	0.131759	-0.418127	-0.187802	0.034104	-0.362719	-0.162658	0.037908	-0.428497	-0.138341	0.028137	-0.422222	-0.158088	0.787741	-0.690857	-0.135514	0.730315	-0.688558	-0.074276	0.748847	-0.676087	-0.089337	0.806692	-0.677644	-0.195180	0.364469	-0.695702	-0.213766	0.328681	-0.693987	-0.155440	0.306849	-0.684814	-0.144022	0.349386	-0.688349	-0.316902	0.122716	-0.651374	-0.185115	0.040228	-0.701797	-0.154969	0.037264	-0.634972	-0.133168	0.028928	-0.640522	
634	3.1700	-0.188926	1.416807	-0.681348	-0.215430	1.395074	-0.342567	-0.138537	1.378531	-0.507764	-0.099597	0.979044	-0.395498	-0.094122	0.978471	-0.623642	-0.154831	1.024785	-0.371757	-0.149076	1.021716	-0.651219	-0.256950	1.001909	-0.455682	-0.253755	1.002925	-0.569184	-0.260009	1.004799	-0.512173	-0.187544	0.763772	-0.345803	-0.163060	0.709025	-0.342929	-0.103087	0.731951	-0.336928	-0.119778	0.790947	-0.338328	-0.215838	0.350285	-0.351240	-0.231159	0.311330	-0.361803	-0.172451	0.296388	-0.362318	-0.161255	0.334720	-0.356531	-0.318566	0.128890	-0.417883	-0.188532	0.033624	-0.362341	-0.163506	0.037735	-0.428557	-0.138653	0.028021	-0.422394	-0.157277	0.782474	-0.690699	-0.134407	0.725176	-0.688213	-0.073392	0.744021	-0.675179	-0.088743	0.801803	-0.676876	-0.194142	0.360308	-0.695584	-0.213264	0.324803	-0.693849	-0.155356	0.302210	-0.684000	-0.143298	0.344556	-0.687663	-0.319347	0.119879	-0.651056	-0.186084	0.040103	-0.701889	-0.155553	0.037075	-0.635117	-0.133434	0.028842	-0.640665	
